<?xml version="1.0" encoding="utf-8"?>
<!-- Generator: Adobe Illustrator 15.1.0, SVG Export Plug-In . SVG Version: 6.00 Build 0)  -->
<!DOCTYPE svg PUBLIC "-//W3C//DTD SVG 1.1//EN" "http://www.w3.org/Graphics/SVG/1.1/DTD/svg11.dtd">
<svg version="1.1" id="Layer_1" xmlns="http://www.w3.org/2000/svg" xmlns:xlink="http://www.w3.org/1999/xlink" x="0px" y="0px"
	 width="200px" height="25px" viewBox="0 0 200 25" enable-background="new 0 0 200 25" xml:space="preserve">
<g>
	<path fill="#FFFFFF" d="M92.726,21.604c-11.891,0-15.513-3.135-15.513-7.192V0h7.793v13.586c0,3.311,3.452,4.214,8.094,4.214
		c3.153,0,5.513-0.095,7.259-0.308V0h7.792v20.656C105.245,21.142,99.41,21.604,92.726,21.604"/>
	<polygon fill="#FFFFFF" points="23.146,21.093 23.146,12.386 7.792,12.386 7.792,21.093 0,21.093 0,0 7.792,0 7.792,8.626
		23.146,8.626 23.146,0 30.939,0 30.939,21.093 	"/>
	<path fill="#FFFFFF" d="M126.099,4.218h21.041V0h-22.676c-6.154,0-8.264,1.097-8.264,4.279v16.814h7.792l0.002-8.826h23.146v-3.75
		h-23.146l-0.002-3.002C123.99,4.742,124.437,4.218,126.099,4.218"/>
	<path fill="#FFFFFF" d="M163.147,4.218c-1.662,0-2.107,0.523-2.107,1.298l0.002,3.077h23.146v3.601h-23.146l-0.002,3.384
		c-0.001,0.774,0.445,1.297,2.107,1.297l21.04,0.001v4.218h-22.676c-6.151,0-8.264-1.097-8.264-4.279V4.279
		c0-3.182,2.112-4.279,8.264-4.279h22.676v4.218H163.147z"/>
	<path fill="#FFFFFF" d="M192.068,17.127c0-1.063,0.616-1.439,2.417-1.439h3.097c1.801,0,2.418,0.376,2.418,1.439v2.528
		c0,1.064-0.617,1.438-2.418,1.438h-3.097c-1.801,0-2.417-0.374-2.417-1.438V17.127z"/>
	<path fill-rule="evenodd" clip-rule="evenodd" fill="#FFFFFF" d="M54.241,8.096c-4.972-0.001-9.474,0.444-12.583,0.992
		c-2.247,0.361-3.215,1.201-3.215,3.106v5.299c0,1.904,0.969,2.748,3.215,3.108c3.109,0.548,7.61,0.983,12.583,1.003
		c6.529,0.026,12.291-0.477,15.141-0.951V6.996C69.381,0.402,66.832,0,58.201,0H40.867v3.644h17.146
		c3.223,0,3.519,0.884,3.519,2.832v1.62H54.241z M54.23,18.106c-2.453,0-4.861-0.192-6.426-0.506
		c-1.111-0.177-1.589-0.593-1.589-1.534v-2.454c0-0.942,0.478-1.36,1.589-1.536c1.564-0.315,3.975-0.498,6.427-0.498h7.3v6.21
		c-1.474,0.206-4.364,0.307-7.3,0.307L54.23,18.106z"/>
</g>
</svg>